<mxfile host="app.diagrams.net" modified="2022-05-09T07:11:17.664Z" agent="5.0 (X11; Linux x86_64) AppleWebKit/537.36 (KHTML, like Gecko) Chrome/101.0.4951.41 Safari/537.36" etag="syNSqL1UcUXRgdu8_sXv" version="18.0.2" type="github">
  <diagram id="pCDrITwIozkyntHE1pG3" name="Page-1">
    <mxGraphModel dx="1778" dy="870" grid="1" gridSize="10" guides="1" tooltips="1" connect="1" arrows="1" fold="1" page="1" pageScale="1" pageWidth="1100" pageHeight="850" math="0" shadow="0">
      <root>
        <mxCell id="0" />
        <mxCell id="1" parent="0" />
        <mxCell id="gpeD3qnYPMBnOguBQxmV-2" value="PERSONAGEM" style="rounded=0;whiteSpace=wrap;html=1;" vertex="1" parent="1">
          <mxGeometry x="200" y="100" width="150" height="40" as="geometry" />
        </mxCell>
        <mxCell id="gpeD3qnYPMBnOguBQxmV-6" value="REGIAO" style="rounded=0;whiteSpace=wrap;html=1;" vertex="1" parent="1">
          <mxGeometry x="770" y="100" width="150" height="40" as="geometry" />
        </mxCell>
        <mxCell id="gpeD3qnYPMBnOguBQxmV-8" value="CIDADAO" style="rounded=0;whiteSpace=wrap;html=1;" vertex="1" parent="1">
          <mxGeometry x="10" y="270" width="150" height="40" as="geometry" />
        </mxCell>
        <mxCell id="gpeD3qnYPMBnOguBQxmV-54" style="edgeStyle=orthogonalEdgeStyle;rounded=0;orthogonalLoop=1;jettySize=auto;html=1;exitX=0.5;exitY=1;exitDx=0;exitDy=0;entryX=1;entryY=0.5;entryDx=0;entryDy=0;endArrow=none;endFill=0;" edge="1" parent="1" source="gpeD3qnYPMBnOguBQxmV-9" target="gpeD3qnYPMBnOguBQxmV-47">
          <mxGeometry relative="1" as="geometry" />
        </mxCell>
        <mxCell id="gpeD3qnYPMBnOguBQxmV-9" value="MARINHEIRO" style="rounded=0;whiteSpace=wrap;html=1;" vertex="1" parent="1">
          <mxGeometry x="200" y="270" width="150" height="40" as="geometry" />
        </mxCell>
        <mxCell id="gpeD3qnYPMBnOguBQxmV-10" value="PIRATA" style="rounded=0;whiteSpace=wrap;html=1;" vertex="1" parent="1">
          <mxGeometry x="390" y="270" width="150" height="40" as="geometry" />
        </mxCell>
        <mxCell id="gpeD3qnYPMBnOguBQxmV-12" style="edgeStyle=orthogonalEdgeStyle;rounded=0;orthogonalLoop=1;jettySize=auto;html=1;exitX=1;exitY=0.5;exitDx=0;exitDy=0;entryX=0.5;entryY=1;entryDx=0;entryDy=0;endArrow=none;endFill=0;" edge="1" parent="1" source="gpeD3qnYPMBnOguBQxmV-11" target="gpeD3qnYPMBnOguBQxmV-2">
          <mxGeometry relative="1" as="geometry" />
        </mxCell>
        <mxCell id="gpeD3qnYPMBnOguBQxmV-13" style="edgeStyle=orthogonalEdgeStyle;rounded=0;orthogonalLoop=1;jettySize=auto;html=1;exitX=0;exitY=0.25;exitDx=0;exitDy=0;entryX=0.5;entryY=0;entryDx=0;entryDy=0;endArrow=none;endFill=0;" edge="1" parent="1" source="gpeD3qnYPMBnOguBQxmV-11" target="gpeD3qnYPMBnOguBQxmV-8">
          <mxGeometry relative="1" as="geometry" />
        </mxCell>
        <mxCell id="gpeD3qnYPMBnOguBQxmV-14" style="edgeStyle=orthogonalEdgeStyle;rounded=0;orthogonalLoop=1;jettySize=auto;html=1;exitX=0;exitY=0.5;exitDx=0;exitDy=0;entryX=0.5;entryY=0;entryDx=0;entryDy=0;endArrow=none;endFill=0;" edge="1" parent="1" source="gpeD3qnYPMBnOguBQxmV-11" target="gpeD3qnYPMBnOguBQxmV-9">
          <mxGeometry relative="1" as="geometry" />
        </mxCell>
        <mxCell id="gpeD3qnYPMBnOguBQxmV-15" style="edgeStyle=orthogonalEdgeStyle;rounded=0;orthogonalLoop=1;jettySize=auto;html=1;exitX=0;exitY=0.75;exitDx=0;exitDy=0;entryX=0.5;entryY=0;entryDx=0;entryDy=0;endArrow=none;endFill=0;" edge="1" parent="1" source="gpeD3qnYPMBnOguBQxmV-11" target="gpeD3qnYPMBnOguBQxmV-10">
          <mxGeometry relative="1" as="geometry">
            <Array as="points">
              <mxPoint x="295" y="240" />
              <mxPoint x="465" y="240" />
            </Array>
          </mxGeometry>
        </mxCell>
        <mxCell id="gpeD3qnYPMBnOguBQxmV-11" value="" style="triangle;whiteSpace=wrap;html=1;rotation=-90;" vertex="1" parent="1">
          <mxGeometry x="245" y="150" width="60" height="80" as="geometry" />
        </mxCell>
        <mxCell id="gpeD3qnYPMBnOguBQxmV-17" style="edgeStyle=orthogonalEdgeStyle;rounded=0;orthogonalLoop=1;jettySize=auto;html=1;exitX=0;exitY=0.5;exitDx=0;exitDy=0;entryX=1;entryY=0.5;entryDx=0;entryDy=0;endArrow=none;endFill=0;" edge="1" parent="1" source="gpeD3qnYPMBnOguBQxmV-16" target="gpeD3qnYPMBnOguBQxmV-2">
          <mxGeometry relative="1" as="geometry" />
        </mxCell>
        <mxCell id="gpeD3qnYPMBnOguBQxmV-18" style="edgeStyle=orthogonalEdgeStyle;rounded=0;orthogonalLoop=1;jettySize=auto;html=1;exitX=1;exitY=0.5;exitDx=0;exitDy=0;entryX=0;entryY=0.5;entryDx=0;entryDy=0;endArrow=none;endFill=0;" edge="1" parent="1" source="gpeD3qnYPMBnOguBQxmV-16" target="gpeD3qnYPMBnOguBQxmV-6">
          <mxGeometry relative="1" as="geometry" />
        </mxCell>
        <mxCell id="gpeD3qnYPMBnOguBQxmV-16" value="Tem" style="rhombus;whiteSpace=wrap;html=1;" vertex="1" parent="1">
          <mxGeometry x="490" y="80" width="80" height="80" as="geometry" />
        </mxCell>
        <mxCell id="gpeD3qnYPMBnOguBQxmV-20" style="edgeStyle=orthogonalEdgeStyle;rounded=0;orthogonalLoop=1;jettySize=auto;html=1;exitX=0.5;exitY=0;exitDx=0;exitDy=0;entryX=0.5;entryY=1;entryDx=0;entryDy=0;endArrow=none;endFill=0;" edge="1" parent="1" source="gpeD3qnYPMBnOguBQxmV-19" target="gpeD3qnYPMBnOguBQxmV-8">
          <mxGeometry relative="1" as="geometry" />
        </mxCell>
        <mxCell id="gpeD3qnYPMBnOguBQxmV-22" style="edgeStyle=orthogonalEdgeStyle;rounded=0;orthogonalLoop=1;jettySize=auto;html=1;exitX=0.5;exitY=1;exitDx=0;exitDy=0;entryX=0.5;entryY=0;entryDx=0;entryDy=0;endArrow=none;endFill=0;" edge="1" parent="1" source="gpeD3qnYPMBnOguBQxmV-19" target="gpeD3qnYPMBnOguBQxmV-21">
          <mxGeometry relative="1" as="geometry" />
        </mxCell>
        <mxCell id="gpeD3qnYPMBnOguBQxmV-19" value="Tem" style="rhombus;whiteSpace=wrap;html=1;" vertex="1" parent="1">
          <mxGeometry x="45" y="340" width="80" height="80" as="geometry" />
        </mxCell>
        <mxCell id="gpeD3qnYPMBnOguBQxmV-21" value="PROFISSAO" style="rounded=0;whiteSpace=wrap;html=1;" vertex="1" parent="1">
          <mxGeometry x="10" y="450" width="150" height="40" as="geometry" />
        </mxCell>
        <mxCell id="gpeD3qnYPMBnOguBQxmV-33" style="edgeStyle=orthogonalEdgeStyle;rounded=0;orthogonalLoop=1;jettySize=auto;html=1;exitX=0.5;exitY=1;exitDx=0;exitDy=0;entryX=0.5;entryY=0;entryDx=0;entryDy=0;endArrow=none;endFill=0;" edge="1" parent="1" source="gpeD3qnYPMBnOguBQxmV-34" target="gpeD3qnYPMBnOguBQxmV-35">
          <mxGeometry relative="1" as="geometry">
            <Array as="points">
              <mxPoint x="725" y="610" />
              <mxPoint x="790" y="610" />
              <mxPoint x="790" y="630" />
            </Array>
          </mxGeometry>
        </mxCell>
        <mxCell id="gpeD3qnYPMBnOguBQxmV-55" style="edgeStyle=orthogonalEdgeStyle;rounded=0;orthogonalLoop=1;jettySize=auto;html=1;exitX=0.5;exitY=0;exitDx=0;exitDy=0;entryX=0.5;entryY=1;entryDx=0;entryDy=0;endArrow=none;endFill=0;" edge="1" parent="1" source="gpeD3qnYPMBnOguBQxmV-34" target="gpeD3qnYPMBnOguBQxmV-41">
          <mxGeometry relative="1" as="geometry" />
        </mxCell>
        <mxCell id="gpeD3qnYPMBnOguBQxmV-34" value="Tem" style="rhombus;whiteSpace=wrap;html=1;" vertex="1" parent="1">
          <mxGeometry x="685" y="510" width="80" height="80" as="geometry" />
        </mxCell>
        <mxCell id="gpeD3qnYPMBnOguBQxmV-35" value="BANDO" style="rounded=0;whiteSpace=wrap;html=1;" vertex="1" parent="1">
          <mxGeometry x="740" y="630" width="150" height="100" as="geometry" />
        </mxCell>
        <mxCell id="gpeD3qnYPMBnOguBQxmV-40" style="edgeStyle=orthogonalEdgeStyle;rounded=0;orthogonalLoop=1;jettySize=auto;html=1;exitX=1;exitY=0.5;exitDx=0;exitDy=0;entryX=0.5;entryY=1;entryDx=0;entryDy=0;endArrow=none;endFill=0;" edge="1" parent="1" source="gpeD3qnYPMBnOguBQxmV-39" target="gpeD3qnYPMBnOguBQxmV-10">
          <mxGeometry relative="1" as="geometry">
            <Array as="points">
              <mxPoint x="710" y="320" />
              <mxPoint x="465" y="320" />
            </Array>
          </mxGeometry>
        </mxCell>
        <mxCell id="gpeD3qnYPMBnOguBQxmV-43" style="edgeStyle=orthogonalEdgeStyle;rounded=0;orthogonalLoop=1;jettySize=auto;html=1;exitX=0;exitY=0.25;exitDx=0;exitDy=0;entryX=0.5;entryY=0;entryDx=0;entryDy=0;endArrow=none;endFill=0;" edge="1" parent="1" source="gpeD3qnYPMBnOguBQxmV-39" target="gpeD3qnYPMBnOguBQxmV-41">
          <mxGeometry relative="1" as="geometry">
            <Array as="points">
              <mxPoint x="690" y="450" />
            </Array>
          </mxGeometry>
        </mxCell>
        <mxCell id="gpeD3qnYPMBnOguBQxmV-44" style="edgeStyle=orthogonalEdgeStyle;rounded=0;orthogonalLoop=1;jettySize=auto;html=1;exitX=0;exitY=0.75;exitDx=0;exitDy=0;entryX=0.5;entryY=0;entryDx=0;entryDy=0;endArrow=none;endFill=0;" edge="1" parent="1" source="gpeD3qnYPMBnOguBQxmV-39" target="gpeD3qnYPMBnOguBQxmV-42">
          <mxGeometry relative="1" as="geometry">
            <Array as="points">
              <mxPoint x="730" y="380" />
              <mxPoint x="730" y="415" />
              <mxPoint x="885" y="415" />
            </Array>
          </mxGeometry>
        </mxCell>
        <mxCell id="gpeD3qnYPMBnOguBQxmV-39" value="" style="triangle;whiteSpace=wrap;html=1;rotation=-90;" vertex="1" parent="1">
          <mxGeometry x="680" y="320" width="60" height="80" as="geometry" />
        </mxCell>
        <mxCell id="gpeD3qnYPMBnOguBQxmV-41" value="TRIPULANTE" style="rounded=0;whiteSpace=wrap;html=1;" vertex="1" parent="1">
          <mxGeometry x="650" y="450" width="150" height="40" as="geometry" />
        </mxCell>
        <mxCell id="gpeD3qnYPMBnOguBQxmV-42" value="CAPITAO" style="rounded=0;whiteSpace=wrap;html=1;" vertex="1" parent="1">
          <mxGeometry x="810" y="450" width="150" height="40" as="geometry" />
        </mxCell>
        <mxCell id="gpeD3qnYPMBnOguBQxmV-51" style="edgeStyle=orthogonalEdgeStyle;rounded=0;orthogonalLoop=1;jettySize=auto;html=1;exitX=0;exitY=0.25;exitDx=0;exitDy=0;entryX=0.5;entryY=0;entryDx=0;entryDy=0;endArrow=none;endFill=0;" edge="1" parent="1" source="gpeD3qnYPMBnOguBQxmV-47" target="gpeD3qnYPMBnOguBQxmV-48">
          <mxGeometry relative="1" as="geometry">
            <Array as="points">
              <mxPoint x="255" y="450" />
            </Array>
          </mxGeometry>
        </mxCell>
        <mxCell id="gpeD3qnYPMBnOguBQxmV-52" style="edgeStyle=orthogonalEdgeStyle;rounded=0;orthogonalLoop=1;jettySize=auto;html=1;exitX=0;exitY=0.5;exitDx=0;exitDy=0;entryX=0.5;entryY=0;entryDx=0;entryDy=0;endArrow=none;endFill=0;" edge="1" parent="1" source="gpeD3qnYPMBnOguBQxmV-47" target="gpeD3qnYPMBnOguBQxmV-49">
          <mxGeometry relative="1" as="geometry" />
        </mxCell>
        <mxCell id="gpeD3qnYPMBnOguBQxmV-53" style="edgeStyle=orthogonalEdgeStyle;rounded=0;orthogonalLoop=1;jettySize=auto;html=1;exitX=0;exitY=0.75;exitDx=0;exitDy=0;entryX=0.5;entryY=0;entryDx=0;entryDy=0;endArrow=none;endFill=0;" edge="1" parent="1" source="gpeD3qnYPMBnOguBQxmV-47" target="gpeD3qnYPMBnOguBQxmV-50">
          <mxGeometry relative="1" as="geometry">
            <Array as="points">
              <mxPoint x="290" y="400" />
              <mxPoint x="565" y="400" />
            </Array>
          </mxGeometry>
        </mxCell>
        <mxCell id="gpeD3qnYPMBnOguBQxmV-47" value="" style="triangle;whiteSpace=wrap;html=1;rotation=-90;" vertex="1" parent="1">
          <mxGeometry x="245" y="320" width="60" height="80" as="geometry" />
        </mxCell>
        <mxCell id="gpeD3qnYPMBnOguBQxmV-48" value="OUTROS" style="rounded=0;whiteSpace=wrap;html=1;" vertex="1" parent="1">
          <mxGeometry x="170" y="450" width="150" height="40" as="geometry" />
        </mxCell>
        <mxCell id="gpeD3qnYPMBnOguBQxmV-49" value="ALMIRANTE&lt;br&gt;DA&lt;br&gt;FROTA" style="rounded=0;whiteSpace=wrap;html=1;" vertex="1" parent="1">
          <mxGeometry x="330" y="450" width="150" height="50" as="geometry" />
        </mxCell>
        <mxCell id="gpeD3qnYPMBnOguBQxmV-50" value="ALMIRANTE" style="rounded=0;whiteSpace=wrap;html=1;" vertex="1" parent="1">
          <mxGeometry x="490" y="450" width="150" height="40" as="geometry" />
        </mxCell>
        <mxCell id="gpeD3qnYPMBnOguBQxmV-57" style="edgeStyle=orthogonalEdgeStyle;rounded=0;orthogonalLoop=1;jettySize=auto;html=1;exitX=0.5;exitY=1;exitDx=0;exitDy=0;entryX=0.75;entryY=0;entryDx=0;entryDy=0;endArrow=none;endFill=0;" edge="1" parent="1" source="gpeD3qnYPMBnOguBQxmV-56" target="gpeD3qnYPMBnOguBQxmV-35">
          <mxGeometry relative="1" as="geometry">
            <Array as="points">
              <mxPoint x="885" y="610" />
              <mxPoint x="830" y="610" />
              <mxPoint x="830" y="630" />
            </Array>
          </mxGeometry>
        </mxCell>
        <mxCell id="gpeD3qnYPMBnOguBQxmV-58" style="edgeStyle=orthogonalEdgeStyle;rounded=0;orthogonalLoop=1;jettySize=auto;html=1;exitX=0.5;exitY=0;exitDx=0;exitDy=0;entryX=0.5;entryY=1;entryDx=0;entryDy=0;endArrow=none;endFill=0;" edge="1" parent="1" source="gpeD3qnYPMBnOguBQxmV-56" target="gpeD3qnYPMBnOguBQxmV-42">
          <mxGeometry relative="1" as="geometry" />
        </mxCell>
        <mxCell id="gpeD3qnYPMBnOguBQxmV-56" value="Comanda" style="rhombus;whiteSpace=wrap;html=1;" vertex="1" parent="1">
          <mxGeometry x="845" y="510" width="80" height="80" as="geometry" />
        </mxCell>
      </root>
    </mxGraphModel>
  </diagram>
</mxfile>
